<svg id="Layer_1" data-name="Layer 1" xmlns="http://www.w3.org/2000/svg" xmlns:xlink="http://www.w3.org/1999/xlink" viewBox="0 0 1024 438.66"><defs><style>.cls-1{fill:none;}.cls-2{clip-path:url(#clip-path);}.cls-3{font-size:270.57px;font-family:LeagueSpartan-Bold, League Spartan;}.cls-3,.cls-5,.cls-6{font-weight:700;}.cls-4{clip-path:url(#clip-path-2);}.cls-5,.cls-6{font-size:60.07px;}.cls-5{font-family:Montserrat-Bold, Montserrat;}.cls-6{font-family:NotoSans-Bold, Noto Sans;}</style><clipPath id="clip-path"><rect class="cls-1" width="1024" height="438.66"/></clipPath><clipPath id="clip-path-2"><rect class="cls-1" x="697.92" y="62.02" width="233.47" height="233.47"/></clipPath></defs><title>ic_app_logo</title><g class="cls-2"><text class="cls-3" transform="translate(102.39 290.66)">V</text><text class="cls-3" transform="translate(301 290.66)">i</text><text class="cls-3" transform="translate(369.18 290.66)">e</text><text class="cls-3" transform="translate(518.8 290.66)">G</text></g><g class="cls-4"><path d="M778.41,240.63a5,5,0,1,1-.38-1.91A4.94,4.94,0,0,1,778.41,240.63Z"/><path d="M860.22,240.63a5,5,0,1,1-.38-1.91A4.94,4.94,0,0,1,860.22,240.63Z"/><path d="M782.74,223.54h72.49a17.1,17.1,0,1,1-16.35,12.11H789.77a17.09,17.09,0,1,1-19.29-11.84l-3-16.55,0-.16-15.94-78.87-14.64.1-.08-12.11,24.62-.16,6,29.47,110.36,13.23-14,53.42h-83ZM814.64,61.95a116.71,116.71,0,1,0,116.71,116.7A116.71,116.71,0,0,0,814.64,61.95Z"/></g><g class="cls-2"><text class="cls-5" transform="translate(178.07 374.37)">G</text><text class="cls-5" transform="translate(222.7 374.37)">i</text><text class="cls-5" transform="translate(241.39 374.37)">a</text><text class="cls-5" transform="translate(277.42 374.37)">o</text><text class="cls-5" transform="translate(315.69 374.37)"> </text><text class="cls-5" transform="translate(329.62 374.37)">n</text><text class="cls-5" transform="translate(370.04 374.37)">h</text><text class="cls-5" transform="translate(410.77 374.37)">a</text><text class="cls-5" transform="translate(446.8 374.37)">n</text><text class="cls-5" transform="translate(487.22 374.37)">h</text><text class="cls-5" transform="translate(527.95 374.37)"> </text><text class="cls-5" transform="translate(541.88 374.37)">-</text><text class="cls-5" transform="translate(564.34 374.37)"> </text><text class="cls-5" transform="translate(578.28 374.37)">T</text><text class="cls-5" transform="translate(614.98 374.37)">i</text><text class="cls-6" transform="translate(633.66 374.37)">ế</text><text class="cls-5" transform="translate(669.16 374.37)">t</text><text class="cls-5" transform="translate(695.28 374.37)"> </text><text class="cls-5" transform="translate(709.23 374.37)">k</text><text class="cls-5" transform="translate(747.06 374.37)">i</text><text class="cls-6" transform="translate(765.74 374.37)">ệ</text><text class="cls-5" transform="translate(801.24 374.37)">m</text></g></svg>